<svg width="28" height="9" viewBox="0 0 28 9" fill="none" xmlns="http://www.w3.org/2000/svg">
<path d="M16 5L11 2.11325V7.88675L16 5Z" fill="#EE1F1F"/>
<rect x="0.5" y="0.5" width="11" height="8" fill="#2BE899" stroke="#187A51"/>
<line x1="7.5" y1="1" x2="7.5" y2="8" stroke="#187A51"/>
<rect x="16.5" y="0.5" width="11" height="8" fill="#E82BB9" stroke="#741C5E"/>
<line x1="23.5" y1="1" x2="23.5" y2="8" stroke="#741C5E"/>
<path d="M3.31676 1.90909V7H2.70028V2.5554H2.67045L1.42756 3.38068V2.75426L2.70028 1.90909H3.31676Z" fill="black"/>
<path d="M17.527 7V6.55256L19.2074 4.71307C19.4046 4.49763 19.567 4.31037 19.6946 4.15128C19.8222 3.99053 19.9167 3.83973 19.978 3.69886C20.041 3.55634 20.0724 3.4072 20.0724 3.25142C20.0724 3.07244 20.0294 2.9175 19.9432 2.78658C19.8587 2.65566 19.7427 2.55457 19.5952 2.48331C19.4477 2.41205 19.282 2.37642 19.098 2.37642C18.9025 2.37642 18.7318 2.41702 18.5859 2.49822C18.4418 2.57777 18.3299 2.68963 18.2504 2.83381C18.1725 2.97798 18.1335 3.14702 18.1335 3.34091H17.5469C17.5469 3.04261 17.6156 2.78078 17.7532 2.5554C17.8907 2.33002 18.078 2.15436 18.315 2.02841C18.5536 1.90246 18.8213 1.83949 19.1179 1.83949C19.4162 1.83949 19.6805 1.90246 19.9109 2.02841C20.1412 2.15436 20.3219 2.32422 20.4528 2.538C20.5837 2.75178 20.6491 2.98958 20.6491 3.25142C20.6491 3.43868 20.6152 3.6218 20.5472 3.80078C20.4809 3.9781 20.3649 4.17614 20.1992 4.39489C20.0352 4.61198 19.8073 4.87713 19.5156 5.19034L18.3722 6.41335V6.45312H20.7386V7H17.527Z" fill="black"/>
</svg>
