<svg width="14" height="19" viewBox="0 0 14 19" fill="none" xmlns="http://www.w3.org/2000/svg">
<path d="M8.26776 15.2333H5.51776L5.22742 14.994L6.89276 17.5L8.26776 15.2333Z" fill="#54F927"/>
<path d="M5.51776 15.2333H8.26776V11.8333H5.51776V15.2333Z" fill="#69F941"/>
<path d="M1.39276 11.8333L5.22742 14.994L5.51776 15.2333V11.8333H1.39276Z" fill="#69F941"/>
<path d="M8.26776 0.5H5.51776V11.8333H8.26776V0.5Z" fill="#69F941"/>
<path d="M8.26776 15.2333L12.3928 11.8333H8.26776V15.2333Z" fill="#69F941"/>
<path d="M5.51776 15.2333H8.26776M5.51776 15.2333L1.39276 11.8333M5.51776 15.2333V11.8333M5.51776 15.2333L5.22742 14.994M8.26776 15.2333L12.3928 11.8333H8.26776M8.26776 15.2333L6.89276 17.5L5.22742 14.994M8.26776 15.2333V11.8333M1.39276 11.8333H5.51776M1.39276 11.8333L5.22742 14.994M5.51776 11.8333V0.5H8.26776V11.8333M5.51776 11.8333H8.26776" stroke="black"/>
</svg>
