<svg width="23" height="23" viewBox="0 0 23 23" fill="none" xmlns="http://www.w3.org/2000/svg">
<g clip-path="url(#clip0_17_40)">
<path fill-rule="evenodd" clip-rule="evenodd" d="M17.4144 0.958344C17.9227 0.958344 18.4102 1.16027 18.7697 1.51973L21.4803 4.23029C21.8397 4.58975 22.0417 5.07725 22.0417 5.58559V19.1667C22.0417 20.7545 20.7545 22.0417 19.1667 22.0417H3.83333C2.24551 22.0417 0.958328 20.7545 0.958328 19.1667V3.83334C0.958328 2.24553 2.24551 0.958344 3.83333 0.958344H17.4144ZM3.83333 2.87501C3.30406 2.87501 2.87499 3.30408 2.87499 3.83334V19.1667C2.87499 19.696 3.30406 20.125 3.83333 20.125H4.79166V14.375C4.79166 12.7871 6.07885 11.5 7.66666 11.5H15.3333C16.9212 11.5 18.2083 12.7871 18.2083 14.375V20.125H19.1667C19.6959 20.125 20.125 19.696 20.125 19.1667V6.54392C20.125 6.03558 19.9231 5.54808 19.5636 5.18863L17.8114 3.43639C17.4519 3.07694 16.9644 2.87501 16.4561 2.87501H16.2917V4.79168C16.2917 6.37949 15.0045 7.66668 13.4167 7.66668H9.58333C7.99551 7.66668 6.70833 6.37949 6.70833 4.79168V2.87501H3.83333ZM16.2917 20.125V14.375C16.2917 13.8457 15.8626 13.4167 15.3333 13.4167H7.66666C7.13739 13.4167 6.70833 13.8457 6.70833 14.375V20.125H16.2917ZM8.62499 2.87501H14.375V4.79168C14.375 5.32094 13.9459 5.75001 13.4167 5.75001H9.58333C9.05406 5.75001 8.62499 5.32094 8.62499 4.79168V2.87501Z" fill="#0F0F0F"/>
</g>
<defs>
<clipPath id="clip0_17_40">
<rect width="23" height="23" fill="white"/>
</clipPath>
</defs>
</svg>
