<svg width="100" height="100" viewBox="0 0 100 100" fill="none" xmlns="http://www.w3.org/2000/svg">
<line x1="15.0501" y1="23.8391" x2="26.0501" y2="14.8391" stroke="#EF9312" stroke-width="3"/>
<line x1="11.4643" y1="37.6746" x2="13.4643" y2="46.6746" stroke="#EF9312" stroke-width="3"/>
<line x1="19.2655" y1="61.1947" x2="26.2655" y2="72.1947" stroke="#EF9312" stroke-width="3"/>
<line x1="37.1189" y1="17.001" x2="45.0213" y2="25.852" stroke="#EF9312" stroke-width="3"/>
<line x1="54.9786" y1="25.8519" x2="62.8811" y2="17.001" stroke="#EF9312" stroke-width="3"/>
<line x1="75.9499" y1="13.8391" x2="86.9499" y2="22.8391" stroke="#EF9312" stroke-width="3"/>
<line x1="88.4643" y1="37.3254" x2="86.4643" y2="46.3254" stroke="#EF9312" stroke-width="3"/>
<line x1="82.2481" y1="60.8321" x2="74.2481" y2="72.8321" stroke="#EF9312" stroke-width="3"/>
<line x1="37.1523" y1="83.0397" x2="42.1523" y2="89.0397" stroke="#EF9312" stroke-width="3"/>
<line x1="56.8611" y1="90.0238" x2="62.8611" y2="83.0238" stroke="#EF9312" stroke-width="3"/>
<circle cx="31" cy="11" r="7.5" stroke="#1BA0D0" stroke-width="3"/>
<circle cx="10" cy="29" r="7.5" stroke="#1BA0D0" stroke-width="3"/>
<circle cx="15" cy="54" r="7.5" stroke="#1BA0D0" stroke-width="3"/>
<circle cx="31" cy="78" r="7.5" stroke="#1BA0D0" stroke-width="3"/>
<circle cx="50" cy="91" r="7.5" stroke="#1BA0D0" stroke-width="3"/>
<circle cx="85" cy="54" r="7.5" stroke="#1BA0D0" stroke-width="3"/>
<circle cx="69" cy="78" r="7.5" stroke="#1BA0D0" stroke-width="3"/>
<circle cx="90" cy="29" r="7.5" stroke="#1BA0D0" stroke-width="3"/>
<circle cx="50" cy="32" r="7.5" stroke="#1BA0D0" stroke-width="3"/>
<circle cx="69" cy="11" r="7.5" stroke="#1BA0D0" stroke-width="3"/>
</svg>
