<svg width="100" height="100" viewBox="0 0 100 100" fill="none" xmlns="http://www.w3.org/2000/svg">
<line x1="22.2929" y1="27.2929" x2="28.2929" y2="21.2929" stroke="#EF9312" stroke-width="2"/>
<line x1="18.9701" y1="41.7575" x2="19.9701" y2="45.7575" stroke="#EF9312" stroke-width="2"/>
<line x1="26.8682" y1="59.5039" x2="30.8682" y2="66.5039" stroke="#EF9312" stroke-width="2"/>
<line x1="39.8" y1="22.4" x2="45.8" y2="30.4" stroke="#EF9312" stroke-width="2"/>
<line x1="54.2" y1="30.4" x2="60.2" y2="22.4" stroke="#EF9312" stroke-width="2"/>
<line x1="71.6508" y1="20.2407" x2="78.6508" y2="26.2407" stroke="#EF9312" stroke-width="2"/>
<line x1="81.9806" y1="41.1961" x2="80.9806" y2="46.1961" stroke="#EF9312" stroke-width="2"/>
<line x1="73.9191" y1="60.3939" x2="70.9191" y2="67.3939" stroke="#EF9312" stroke-width="2"/>
<line x1="40.6" y1="76.2" x2="44.6" y2="79.2" stroke="#EF9312" stroke-width="2"/>
<line x1="55.3753" y1="79.2191" x2="60.3753" y2="75.2191" stroke="#EF9312" stroke-width="2"/>
<circle cx="34.5" cy="17.5" r="7" stroke="#4C4C4C"/>
<circle cx="17.5" cy="33.5" r="8" stroke="#4C4C4C"/>
<circle cx="21.5" cy="53.5" r="8" stroke="#4C4C4C"/>
<circle cx="34.5" cy="72.5" r="7" stroke="#4C4C4C"/>
<circle cx="50" cy="83" r="6.5" stroke="#4C4C4C"/>
<circle cx="77.5" cy="53.5" r="8" stroke="#4C4C4C"/>
<circle cx="66.5" cy="72.5" r="7" stroke="#4C4C4C"/>
<circle cx="82.5" cy="33.5" r="8" stroke="#4C4C4C"/>
<circle cx="50" cy="35" r="6.5" stroke="#4C4C4C"/>
<circle cx="65.5" cy="17.5" r="7" stroke="#4C4C4C"/>
</svg>
